#!OML:ASF E:\Mandelcareful walks\Project 1\Capture day 1\Session 1\Subject1.ASF
:FULLY-SPECIFIED
:DEGREES
527
root -7.94225 15.9435 0.608057 498.604 86.4502 492.619
lowerback 23.9417 -0.321951 2.86132
upperback 9.98214 1.09577 0.68138
thorax -2.32865 0.958386 -1.18733
lowerneck -21.4526 9.98552 7.06192
upperneck 29.8347 18.5671 -15.0895
head 16.7442 6.88083 -3.57454
rclavicle -6.36111e-015 -1.66979e-014
rhumerus -17.1548 -3.84568 -77.6794
rradius 36.2811
rwrist -16.3169
rhand -13.2197 -30.1739
rfingers 7.12502
rthumb 12.8814 -59.7564
lclavicle -6.36111e-015 -1.66979e-014
lhumerus -22.3667 -5.51305 87.2486
lradius 39.781
lwrist 20.2058
lhand -21.8807 -14.8784
lfingers 7.12502
lthumb 4.52401 15.0533
rfemur -15.4584 -6.6667 12.6996
rtibia 42.9967
rfoot -27.9799 -0.383108
rtoes 8.28708
lfemur -39.3156 15.6193 -15.2941
ltibia 40.6708
lfoot -2.57427 3.32341
ltoes -2.93248
528
root -7.83371 15.9364 0.51312 515.584 84.9286 510.056
lowerback 24.4298 -0.847293 2.78276
upperback 10.1171 0.48232 0.866043
thorax -2.44444 0.671416 -0.793762
lowerneck -21.3185 9.93598 6.94819
upperneck 29.5962 18.4475 -15.0409
head 16.5503 6.84123 -3.55998
rclavicle 5.56597e-015 1.74931e-014
rhumerus -17.0122 -3.76182 -77.5774
rradius 35.8121
rwrist -16.0637
rhand -13.2429 -29.8898
rfingers 7.12502
rthumb 12.859 -59.4737
lclavicle 5.56597e-015 1.74931e-014
lhumerus -22.5998 -5.67071 87.3644
lradius 39.8492
lwrist 20.4321
lhand -22.1103 -14.3308
lfingers 7.12502
lthumb 4.30223 15.6055
rfemur -13.6723 -7.70955 12.5265
rtibia 42.5099
rfoot -28.1436 -0.94356
rtoes 8.93041
lfemur -39.3435 14.6389 -15.5963
ltibia 41.6442
lfoot -3.34044 2.11543
ltoes -2.92988
529
root -7.74974 15.9227 0.388411 517.833 85.0202 511.988
lowerback 24.3454 -0.598964 2.42434
upperback 9.95196 0.697722 0.843949
thorax -2.58209 0.75603 -0.669645
lowerneck -20.763 9.8793 7.17966
upperneck 29.4101 18.2873 -15.1246
head 16.341 6.83442 -3.68776
rclavicle 3.29983e-014 5.1684e-014
rhumerus -17.3377 -3.46713 -77.5553
rradius 35.7544
rwrist -15.9778
rhand -13.2539 -29.9532
rfingers 7.12502
rthumb 12.8484 -59.5378
lclavicle 3.29983e-014 5.1684e-014
lhumerus -23.1846 -5.90215 87.4406
lradius 39.9992
lwrist 20.6966
lhand -22.1297 -14.1341
lfingers 7.12502
lthumb 4.28349 15.8026
rfemur -13.4382 -7.56555 12.2375
rtibia 42.1692
rfoot -28.2514 -0.984793
rtoes 8.4028
lfemur -40.0709 14.9804 -16.0252
ltibia 42.813
lfoot -4.19787 1.70669
ltoes -2.69133
530
root -7.66202 15.9071 0.260348 519.332 85.142 513.279
lowerback 24.2895 -0.289007 2.2577
upperback 10.1001 1.05728 0.646273
thorax -2.3813 0.941698 -0.876396
lowerneck -21.1652 9.80858 7.39609
upperneck 29.3578 17.9937 -15.0046
head 16.3644 6.72115 -3.72755
rclavicle 1.19271e-015 -1.59028e-015
rhumerus -17.097 -3.82163 -77.7171
rradius 35.7827
rwrist -15.8992
rhand -13.0906 -30.376
rfingers 7.12502
rthumb 13.0059 -59.9506
lclavicle 1.19271e-015 -1.59028e-015
lhumerus -22.9652 -6.6421 87.3373
lradius 40.0038
lwrist 21.0345
lhand -22.0421 -13.8232
lfingers 7.12502
lthumb 4.3681 16.1117
rfemur -13.0042 -7.29346 11.8921
rtibia 41.7249
rfoot -28.7124 -1.29534
rtoes 6.68549
lfemur -40.6744 15.3914 -16.5154
ltibia 44.0122
lfoot -5.02011 1.46877
ltoes -2.13985
531
root -7.5765 15.8879 0.13724 521.985 85.1429 515.818
lowerback 24.3004 -0.14334 1.84053
upperback 10.1558 1.16024 0.665261
thorax -2.33094 0.984367 -0.64379
lowerneck -20.9685 9.81159 7.24996
upperneck 29.0964 17.9871 -14.9989
head 16.1712 6.72322 -3.69941
rclavicle 3.97569e-016 -7.15625e-015
rhumerus -16.6318 -3.43741 -77.8253
rradius 35.5406
rwrist -15.7471
rhand -12.8922 -30.8601
rfingers 7.12502
rthumb 13.1972 -60.4224
lclavicle 3.97569e-016 -7.15625e-015
lhumerus -23.094 -6.5114 87.3842
lradius 40.0644
lwrist 21.0758
lhand -22.0295 -13.3307
lfingers 7.12502
lthumb 4.38027 16.604
rfemur -12.4872 -6.97879 11.6553
rtibia 41.3442
rfoot -29.0309 -1.79988
rtoes 4.96921
lfemur -41.2392 15.5653 -16.8949
ltibia 45.3034
lfoot -5.84926 1.36355
ltoes -1.16688
